<svg width="54" height="23" viewBox="0 0 54 23" fill="none" xmlns="http://www.w3.org/2000/svg">
<path d="M44.3091 22.0771C44.077 22.0771 43.8411 22.0659 43.6016 22.0435C43.3695 22.021 43.1673 21.9985 42.9951 21.9761V19.8423C43.0999 19.8573 43.231 19.8722 43.3882 19.8872C43.5454 19.9022 43.7139 19.9097 43.8936 19.9097C44.4401 19.9097 44.8781 19.8086 45.2075 19.6064C45.5369 19.4043 45.784 19.0449 45.9487 18.5283L46.1172 18.0117L41.8047 5.97266H44.8481L47.8916 16.3271L47.3638 15.5186H48.0825L47.5435 16.3271L50.5981 5.97266H53.5405L49.2168 18.3599C48.9023 19.2808 48.5243 20.0107 48.0825 20.5498C47.6483 21.0964 47.1242 21.4857 46.5103 21.7178C45.8963 21.9574 45.1626 22.0771 44.3091 22.0771Z" fill="black"/>
<path d="M33.8765 18.2021C33.0903 18.2021 32.394 18.0524 31.7876 17.7529C31.1886 17.446 30.717 17.0229 30.3726 16.4839C30.0356 15.9373 29.8672 15.3047 29.8672 14.5859V14.5635C29.8672 13.8447 30.0431 13.2308 30.395 12.7217C30.7544 12.2051 31.2747 11.8008 31.9561 11.5088C32.6374 11.2093 33.4647 11.0296 34.438 10.9697L38.9863 10.689V12.542L34.8311 12.8003C34.1123 12.8452 33.5658 13.0099 33.1914 13.2944C32.8245 13.5789 32.6411 13.9608 32.6411 14.4399V14.4624C32.6411 14.964 32.832 15.3571 33.2139 15.6416C33.5957 15.9261 34.0936 16.0684 34.7075 16.0684C35.2541 16.0684 35.7407 15.9598 36.1675 15.7427C36.6017 15.5181 36.9424 15.2186 37.1895 14.8442C37.4365 14.4624 37.5601 14.0356 37.5601 13.564V9.88037C37.5601 9.27393 37.3691 8.80225 36.9873 8.46533C36.6055 8.12842 36.0514 7.95996 35.3252 7.95996C34.6738 7.95996 34.146 8.09098 33.7417 8.35303C33.3449 8.60758 33.0941 8.94824 32.9893 9.375L32.9668 9.46484H30.3613L30.3726 9.34131C30.4399 8.63753 30.687 8.01611 31.1138 7.47705C31.5405 6.93799 32.117 6.51497 32.8433 6.20801C33.577 5.89355 34.4417 5.73633 35.4375 5.73633C36.4557 5.73633 37.328 5.90104 38.0542 6.23047C38.7879 6.55241 39.3532 7.0166 39.75 7.62305C40.1468 8.22201 40.3452 8.92952 40.3452 9.74561V18H37.5601V16.2144H37.459C37.2344 16.6261 36.9424 16.9818 36.583 17.2812C36.2236 17.5732 35.8156 17.8016 35.3589 17.9663C34.9022 18.1235 34.408 18.2021 33.8765 18.2021Z" fill="black"/>
<path d="M18.5806 12.6436V10.3076H22.7358C23.7765 10.3076 24.5851 10.0418 25.1616 9.51025C25.7381 8.97119 26.0264 8.21501 26.0264 7.2417V7.21924C26.0264 6.23844 25.7381 5.48226 25.1616 4.95068C24.5851 4.41911 23.7765 4.15332 22.7358 4.15332H18.5806V1.79492H23.4434C24.5439 1.79492 25.506 2.01953 26.3296 2.46875C27.1532 2.91797 27.797 3.55062 28.2612 4.3667C28.7254 5.17529 28.9575 6.1224 28.9575 7.20801V7.23047C28.9575 8.30859 28.7254 9.2557 28.2612 10.0718C27.797 10.8804 27.1532 11.513 26.3296 11.9697C25.506 12.4189 24.5439 12.6436 23.4434 12.6436H18.5806ZM17.1318 18.0005V1.79492H20.0181V18.0005H17.1318Z" fill="black"/>
<path d="M10.8311 4.9165C10.9958 4.9165 11.2765 4.94271 11.6733 4.99512C12.0701 5.04753 12.5044 5.19727 12.9761 5.44434C13.4552 5.68392 13.8895 6.08447 14.2788 6.646C14.2563 6.66846 14.1478 6.75081 13.9531 6.89307C13.7585 7.02783 13.5413 7.22998 13.3018 7.49951C13.0622 7.76156 12.8525 8.09847 12.6729 8.51025C12.4932 8.91455 12.4033 9.39746 12.4033 9.95898C12.4033 10.6029 12.5156 11.1494 12.7402 11.5986C12.9723 12.0479 13.2381 12.411 13.5376 12.688C13.8446 12.9575 14.1141 13.1559 14.3462 13.2832C14.5858 13.4105 14.7131 13.4779 14.728 13.4854C14.7205 13.5153 14.6232 13.7811 14.436 14.2827C14.2563 14.7843 13.9569 15.3421 13.5376 15.9561C13.1707 16.4876 12.7739 16.978 12.3472 17.4272C11.9279 17.8765 11.4225 18.1011 10.8311 18.1011C10.4342 18.1011 10.1086 18.0449 9.854 17.9326C9.59945 17.8128 9.3374 17.6968 9.06787 17.5845C8.79834 17.4647 8.43522 17.4048 7.97852 17.4048C7.53678 17.4048 7.16618 17.4647 6.8667 17.5845C6.57471 17.7043 6.29395 17.8241 6.02441 17.9438C5.76237 18.0636 5.45166 18.1235 5.09229 18.1235C4.54574 18.1235 4.06657 17.9064 3.65479 17.4722C3.243 17.0379 2.81999 16.5176 2.38574 15.9111C1.88411 15.1924 1.45361 14.3164 1.09424 13.2832C0.74235 12.2425 0.566406 11.1943 0.566406 10.1387C0.566406 9.00814 0.779785 8.06104 1.20654 7.29736C1.6333 6.5262 2.17985 5.94596 2.84619 5.55664C3.52002 5.15983 4.21631 4.96143 4.93506 4.96143C5.31689 4.96143 5.67627 5.02507 6.01318 5.15234C6.3501 5.27214 6.66455 5.39567 6.95654 5.52295C7.25602 5.65023 7.52555 5.71387 7.76514 5.71387C7.99723 5.71387 8.26676 5.64648 8.57373 5.51172C8.8807 5.37695 9.2251 5.24593 9.60693 5.11865C9.98877 4.98389 10.3968 4.9165 10.8311 4.9165ZM10.2134 3.49023C9.92139 3.84212 9.55452 4.13786 9.11279 4.37744C8.67106 4.60954 8.25179 4.72559 7.85498 4.72559C7.77262 4.72559 7.69401 4.7181 7.61914 4.70312C7.61165 4.68066 7.60417 4.63949 7.59668 4.57959C7.58919 4.51969 7.58545 4.45605 7.58545 4.38867C7.58545 3.93945 7.68278 3.50521 7.87744 3.08594C8.0721 2.65918 8.29297 2.30729 8.54004 2.03027C8.85449 1.65592 9.2513 1.34521 9.73047 1.09814C10.2096 0.851074 10.6663 0.720052 11.1006 0.705078C11.123 0.802409 11.1343 0.918457 11.1343 1.05322C11.1343 1.50244 11.0482 1.94043 10.876 2.36719C10.7038 2.78646 10.4829 3.16081 10.2134 3.49023Z" fill="black"/>
</svg>
