<svg width="32" height="33" viewBox="0 0 32 33" fill="none" xmlns="http://www.w3.org/2000/svg">
<path opacity="0.2" d="M16 28.4883C22.6274 28.4883 28 23.1157 28 16.4883C28 9.86086 22.6274 4.48828 16 4.48828C9.37258 4.48828 4 9.86086 4 16.4883C4 23.1157 9.37258 28.4883 16 28.4883Z" fill="#318142"/>
<path d="M21.5 13.4883L14.1625 20.4883L10.5 16.9883" stroke="#318142" stroke-width="2" stroke-linecap="round" stroke-linejoin="round"/>
<path d="M16 28.4883C22.6274 28.4883 28 23.1157 28 16.4883C28 9.86086 22.6274 4.48828 16 4.48828C9.37258 4.48828 4 9.86086 4 16.4883C4 23.1157 9.37258 28.4883 16 28.4883Z" stroke="#318142" stroke-width="2" stroke-linecap="round" stroke-linejoin="round"/>
</svg>
