<svg width="20" height="20" viewBox="0 0 20 20" fill="none" xmlns="http://www.w3.org/2000/svg">
<path opacity="0.2" d="M10 4.375C3.75 4.375 1.25 10 1.25 10C1.25 10 3.75 15.625 10 15.625C16.25 15.625 18.75 10 18.75 10C18.75 10 16.25 4.375 10 4.375ZM10 13.125C9.38193 13.125 8.77775 12.9417 8.26384 12.5983C7.74994 12.255 7.3494 11.7669 7.11288 11.1959C6.87635 10.6249 6.81447 9.99653 6.93505 9.39034C7.05562 8.78415 7.35325 8.22733 7.79029 7.79029C8.22733 7.35325 8.78415 7.05562 9.39034 6.93505C9.99653 6.81447 10.6249 6.87635 11.1959 7.11288C11.7669 7.3494 12.255 7.74994 12.5983 8.26384C12.9417 8.77775 13.125 9.38193 13.125 10C13.125 10.8288 12.7958 11.6237 12.2097 12.2097C11.6237 12.7958 10.8288 13.125 10 13.125Z" fill="#FFFFFF"/>
<path d="M3.75 3.125L16.25 16.875" stroke="#FFFFFF" stroke-width="1.25" stroke-linecap="round" stroke-linejoin="round"/>
<path d="M12.1012 12.3125C11.5277 12.8379 10.7774 13.128 9.99967 13.125C9.36894 13.1249 8.75299 12.934 8.23279 12.5773C7.7126 12.2206 7.31252 11.7149 7.08513 11.1266C6.85775 10.5383 6.81372 9.8949 6.95882 9.28109C7.10392 8.66728 7.43136 8.11173 7.8981 7.6875" stroke="#FFFFFF" stroke-width="1.25" stroke-linecap="round" stroke-linejoin="round"/>
<path d="M5.78125 5.35938C2.59375 6.96875 1.25 10 1.25 10C1.25 10 3.75 15.625 10 15.625C11.4645 15.6369 12.9108 15.2995 14.2187 14.6406" stroke="#FFFFFF" stroke-width="1.25" stroke-linecap="round" stroke-linejoin="round"/>
<path d="M16.2969 13.211C18 11.6875 18.75 10 18.75 10C18.75 10 16.25 4.37502 10 4.37502C9.45817 4.37395 8.91721 4.41838 8.38281 4.50783" stroke="#FFFFFF" stroke-width="1.25" stroke-linecap="round" stroke-linejoin="round"/>
<path d="M10.5859 6.92969C11.2505 7.05561 11.8561 7.39427 12.3113 7.89457C12.7665 8.39487 13.0466 9.02965 13.1094 9.70312" stroke="#FFFFFF" stroke-width="1.25" stroke-linecap="round" stroke-linejoin="round"/>
</svg>

