<svg width="62" height="25" viewBox="0 0 62 25" fill="none" xmlns="http://www.w3.org/2000/svg">
<path d="M28.5486 12.1333V19.2101H26.3027V1.73438H32.2567C33.7656 1.73438 35.0523 2.23736 36.1051 3.24333C37.1812 4.2493 37.7193 5.47751 37.7193 6.92798C37.7193 8.41353 37.1812 9.64175 36.1051 10.636C35.064 11.6303 33.7773 12.1216 32.2567 12.1216H28.5486V12.1333ZM28.5486 3.88668V9.98097H32.3035C33.1924 9.98097 33.9411 9.67684 34.5259 9.08028C35.1225 8.48372 35.4266 7.75848 35.4266 6.93967C35.4266 6.13256 35.1225 5.41903 34.5259 4.82246C33.9411 4.20251 33.2041 3.89838 32.3035 3.89838H28.5486V3.88668Z" fill="black"/>
<path d="M43.591 6.85547C45.252 6.85547 46.5621 7.29997 47.5213 8.18896C48.4805 9.07795 48.9601 10.2945 48.9601 11.8385V19.2078H46.8195V17.5468H46.7259C45.8018 18.9154 44.5619 19.5938 43.0179 19.5938C41.6961 19.5938 40.5965 19.2078 39.7075 18.4241C38.8185 17.6404 38.374 16.6695 38.374 15.4998C38.374 14.2599 38.8419 13.2773 39.7777 12.5521C40.7135 11.8151 41.9651 11.4525 43.5208 11.4525C44.8543 11.4525 45.9539 11.6982 46.8078 12.1894V11.6748C46.8078 10.891 46.5036 10.236 45.8837 9.68621C45.2637 9.13644 44.5385 8.8674 43.708 8.8674C42.4564 8.8674 41.4621 9.39378 40.7369 10.4582L38.76 9.21832C39.8479 7.63919 41.4621 6.85547 43.591 6.85547ZM40.6901 15.5349C40.6901 16.1197 40.9357 16.611 41.4387 16.997C41.93 17.383 42.5149 17.5819 43.1816 17.5819C44.1291 17.5819 44.9713 17.231 45.7082 16.5291C46.4452 15.8273 46.8195 15.0085 46.8195 14.061C46.1176 13.5112 45.1468 13.2305 43.8951 13.2305C42.9828 13.2305 42.2224 13.4527 41.6142 13.8855C40.9942 14.3417 40.6901 14.8915 40.6901 15.5349Z" fill="black"/>
<path d="M61.1705 7.24219L53.6842 24.4606H51.3681L54.1521 18.4365L49.2158 7.24219H51.6606L55.2165 15.828H55.2633L58.7257 7.24219H61.1705Z" fill="black"/>
<path d="M19.6216 10.7043C19.6216 9.97209 19.5561 9.27142 19.4345 8.59766H10.0205V12.4578L15.4422 12.4589C15.2223 13.7433 14.5146 14.8382 13.4303 15.5681V18.0725H16.6576C18.542 16.3284 19.6216 13.7503 19.6216 10.7043Z" fill="#4285F4"/>
<path d="M13.4305 15.5606C12.5321 16.1665 11.3752 16.5209 10.0219 16.5209C7.40751 16.5209 5.1897 14.7593 4.39546 12.3848H1.06641V14.9675C2.71573 18.2404 6.1056 20.4863 10.0219 20.4863C12.7286 20.4863 15.0026 19.5962 16.6577 18.0638L13.4305 15.5606Z" fill="#34A853"/>
<path d="M4.08119 10.4726C4.08119 9.80586 4.19231 9.16134 4.39467 8.55542V5.97266H1.06562C0.38367 7.32603 0 8.8537 0 10.4726C0 12.0915 0.384839 13.6192 1.06562 14.9726L4.39467 12.3898C4.19231 11.7839 4.08119 11.1394 4.08119 10.4726Z" fill="#FABB05"/>
<path d="M10.0219 4.41851C11.4992 4.41851 12.8222 4.92734 13.8668 5.92161L16.7267 3.06396C14.9897 1.44623 12.7251 0.453125 10.0219 0.453125C6.10677 0.453125 2.71573 2.69901 1.06641 5.97191L4.39546 8.55467C5.1897 6.18012 7.40751 4.41851 10.0219 4.41851Z" fill="#E94235"/>
</svg>
