<svg width="87" height="16" viewBox="0 0 87 16" fill="none" xmlns="http://www.w3.org/2000/svg">
<g clip-path="url(#clip0_7656_59438)">
<path d="M16.2817 0H-0.00402832V16H16.2817V0Z" fill="#00B67A"/>
<path d="M33.9246 0H17.6389V16H33.9246V0Z" fill="#00B67A"/>
<path d="M51.5674 0H35.2817V16H51.5674V0Z" fill="#00B67A"/>
<path d="M69.2103 0H52.9246V16H69.2103V0Z" fill="#00B67A"/>
<path d="M86.8515 0H78.7086V16H86.8515V0Z" fill="#DCDCE6"/>
<path d="M78.7086 0H70.5657V16H78.7086V0Z" fill="#00B67A"/>
<path d="M8.13945 10.7826L10.6162 10.1659L11.6511 13.2992L8.13945 10.7826ZM13.8395 6.73255H9.47963L8.13945 2.69922L6.79927 6.73255H2.43945L5.96802 9.23255L4.62785 13.2659L8.15642 10.7659L10.3278 9.23255L13.8395 6.73255Z" fill="white"/>
<path d="M25.7823 10.7826L28.2591 10.1659L29.2939 13.2992L25.7823 10.7826ZM31.4823 6.73255H27.1225L25.7823 2.69922L24.4421 6.73255H20.0823L23.6108 9.23255L22.2707 13.2659L25.7992 10.7659L27.9707 9.23255L31.4823 6.73255Z" fill="white"/>
<path d="M43.4252 10.7826L45.9019 10.1659L46.9368 13.2992L43.4252 10.7826ZM49.1252 6.73255H44.7653L43.4252 2.69922L42.085 6.73255H37.7252L41.2537 9.23255L39.9136 13.2659L43.4421 10.7659L45.6136 9.23255L49.1252 6.73255Z" fill="white"/>
<path d="M61.068 10.7826L63.5448 10.1659L64.5796 13.2992L61.068 10.7826ZM66.768 6.73255H62.4082L61.068 2.69922L59.7278 6.73255H55.368L58.8966 9.23255L57.5564 13.2659L61.0849 10.7659L63.2564 9.23255L66.768 6.73255Z" fill="white"/>
<path d="M78.7109 10.7826L81.1877 10.1659L82.2225 13.2992L78.7109 10.7826ZM84.4109 6.73255H80.051L78.7109 2.69922L77.3707 6.73255H73.0109L76.5394 9.23255L75.1993 13.2659L78.7278 10.7659L80.8993 9.23255L84.4109 6.73255Z" fill="white"/>
</g>
<defs>
<clipPath id="clip0_7656_59438">
<rect width="86.8571" height="16" fill="white" transform="translate(-0.00738525)"/>
</clipPath>
</defs>
</svg>
