<svg width="194" height="32" viewBox="0 0 194 32" fill="none" xmlns="http://www.w3.org/2000/svg">
<ellipse cx="13.6768" cy="12.3007" rx="5.0496" ry="5.0688" fill="#FF616E"/>
<path d="M19.8016 19.7885C17.6625 21.5482 14.8697 22.3024 12.1355 21.859C9.40137 21.4156 6.99015 19.8173 5.51681 17.4717C4.58067 15.9126 4.00757 14.1626 3.84001 12.3517C3.72295 11.0363 3.88209 9.71089 4.30721 8.46054C4.80332 7.18213 5.44772 5.96635 6.22721 4.83814C6.62401 4.19814 6.72001 3.71174 5.65761 4.15974C4.18232 5.01649 2.97629 6.26907 2.17601 7.77574C1.49143 9.05683 1.00995 10.4365 0.748807 11.8653C0.678407 12.2621 -0.185593 18.2653 4.39681 22.2461C5.23096 22.9296 6.16017 23.488 7.15521 23.9037C8.96359 24.6389 10.917 24.9477 12.864 24.8061C14.2006 24.6569 15.5004 24.2734 16.704 23.6733C16.9841 23.5247 17.2555 23.3602 17.5168 23.1805C19.1899 22.0067 20.4613 20.3465 21.1584 18.4253C20.7521 18.9233 20.2977 19.3799 19.8016 19.7885Z" fill="#8FCBE0"/>
<path d="M29.7664 7.14873C29.1216 5.01039 27.8672 3.10652 26.1568 1.67033C24.4191 0.240618 22.1149 -0.29876 19.9232 0.211129C18.9952 0.460729 18.0032 1.19033 18.1248 2.13113C18.2674 2.66084 18.5717 3.1329 18.9952 3.48153C22.8494 7.49429 24.0901 13.3478 22.1952 18.5791C21.4433 20.7891 20.0005 22.6985 18.08 24.0255C16.2581 25.2517 14.1063 25.8945 11.9104 25.8687C10.1391 25.8616 8.38565 25.514 6.7456 24.8447C5.71838 24.4167 4.75559 23.8481 3.8848 23.1551C5.50821 25.0272 7.58364 26.4526 9.9136 27.2959C13.5258 28.5464 17.4707 28.4326 21.0048 26.9759C24.0917 25.6371 26.6688 23.3449 28.3584 20.4351C28.6749 19.9023 28.9592 19.3509 29.2096 18.7839C30.813 15.1044 31.0111 10.9646 29.7664 7.14873Z" fill="#3A53A2"/>
<path fill-rule="evenodd" clip-rule="evenodd" d="M89.9136 3.83986C89.3021 3.83727 88.7494 4.20362 88.5136 4.7678C88.2778 5.33199 88.4055 5.98269 88.8369 6.41599C89.2684 6.84929 89.9185 6.97969 90.4837 6.74629C91.0489 6.51289 91.4176 5.96174 91.4176 5.35026C91.4176 4.51858 90.7453 3.84338 89.9136 3.83986ZM120.32 3.83986H136.352V5.98386H129.594V24.1983H127.078V5.98386H120.32V3.83986ZM138.349 22.5471C139.821 22.5471 142.035 20.9791 143.629 18.7583L143.642 10.2399H145.978V24.1983H143.642V21.3055C142.016 23.5519 140.205 24.6335 138.112 24.6335C135.68 24.6335 134.4 23.2767 134.4 20.7167V10.2399H136.691V20.1151C136.691 21.8367 137.178 22.5471 138.349 22.5471ZM153.869 22.2719C153.382 22.2719 153.133 22.0543 153.075 21.6319C153.043 21.3823 152.979 20.2111 152.979 20.0895V12.1599H156.666V10.2399H152.979V6.16946H150.675V10.2399L148.346 10.8223V12.1599H150.675V21.4911C150.675 23.3407 151.75 24.6015 153.35 24.6015C154.451 24.6015 155.219 24.1983 156.851 22.8479L155.898 21.3055C154.938 22.0415 154.477 22.2911 153.894 22.2911L153.869 22.2719ZM157.779 17.2159C157.779 13.1775 160.877 9.84946 164.659 9.84946L164.685 9.86866C168.429 9.86866 171.52 13.2287 171.52 17.2351C171.52 21.2415 168.442 24.5823 164.659 24.5823C160.877 24.5823 157.779 21.2543 157.779 17.2159ZM164.659 22.5151C162.202 22.5151 160.294 20.1727 160.294 17.2159C160.294 14.2591 162.214 11.9167 164.659 11.9167C167.104 11.9167 168.986 14.2591 168.986 17.2159C168.986 20.1727 167.11 22.5343 164.685 22.5343L164.659 22.5151ZM176.416 10.2399V12.7999C178.131 10.5471 178.995 9.86866 180.038 9.89426C180.73 9.97835 181.365 10.3186 181.818 10.8479L180.685 12.7679C180.224 12.3647 179.974 12.2111 179.699 12.2111C178.842 12.2111 177.734 13.4719 176.416 15.8783V24.1983H174.112V10.2399H176.416ZM189.504 16.2495C186.982 15.1999 186.618 14.9695 186.061 14.4319C185.841 14.1983 185.722 13.8882 185.728 13.5679C185.728 12.5183 186.739 11.8143 188.288 11.8143C188.828 11.8222 189.364 11.904 189.882 12.0575C190.597 12.2446 191.274 12.5589 191.878 12.9855L193.018 11.1039C192.194 10.5777 191.274 10.2209 190.31 10.0543C189.724 9.94286 189.128 9.89139 188.531 9.90066C185.274 9.90066 183.251 11.4111 183.251 13.8431C183.251 15.5391 184.173 16.4991 186.874 17.6383C189.363 18.6559 190.003 19.0527 190.56 19.8591C190.738 20.1454 190.833 20.4755 190.835 20.8127C190.835 21.8879 189.792 22.6623 188.378 22.6623C187.141 22.6317 185.929 22.3046 184.845 21.7087L184.141 21.3375L183.187 23.2575C184.204 23.8433 185.319 24.2401 186.477 24.4287C187.11 24.5443 187.753 24.6064 188.397 24.6143C191.437 24.6143 193.248 23.1039 193.248 20.6079C193.28 18.4063 192.448 17.4527 189.504 16.2175V16.2495ZM45.5232 19.7119L51.2832 3.83987H53.7984L45.9392 24.7039H44.4032L36.416 3.83987H39.1168L45.1264 19.7119C45.2392 20.0302 45.3123 20.3612 45.344 20.6975C45.3416 20.3606 45.4024 20.0263 45.5232 19.7119ZM63.5328 21.9199V13.3503C63.5328 11.1935 61.7856 9.86866 58.9888 9.86866C56.0128 9.86866 53.984 11.1487 53.984 12.9791C53.9686 13.2859 54.0541 13.5893 54.2272 13.8431L56.5632 13.3503C56.4896 13.1847 56.4483 13.0065 56.4416 12.8255C56.4416 12.0255 57.0816 11.6223 58.56 11.6223C60.3392 11.6223 61.2032 12.2111 61.2032 13.3503V15.8783L56.3776 17.0175C54.5029 17.3286 53.1659 19.0053 53.28 20.9023C53.2203 21.8999 53.5937 22.8749 54.3047 23.5773C55.0157 24.2797 55.9951 24.6413 56.992 24.5695C58.0266 24.5518 59.0406 24.2769 59.9424 23.7695C60.4867 23.4656 60.9899 23.0935 61.44 22.6623C61.5616 23.9871 62.24 24.4799 64.1408 24.5823L64.6976 22.6623C63.9616 22.5343 63.5968 22.2911 63.5328 21.9199ZM57.4528 22.5087C58.496 22.5087 59.2064 22.1695 61.2032 20.7167V17.8495L55.9808 19.1999C55.7073 19.6461 55.5674 20.1614 55.5776 20.6847C55.55 21.1855 55.7405 21.6737 56.1001 22.0235C56.4596 22.3732 56.9529 22.5501 57.4528 22.5087ZM69.6448 12.7999V10.2399H67.3408V24.1983H69.6448V15.8783C70.9696 13.4719 72.0704 12.2111 72.9344 12.2111C73.2096 12.2111 73.4528 12.3647 73.9136 12.7679L75.0528 10.8479C74.5988 10.3167 73.9612 9.9762 73.2672 9.89426C72.224 9.86866 71.3664 10.5471 69.6448 12.7999ZM79.0464 14.4319C79.5968 14.9695 79.968 15.1999 82.4832 16.2495V16.2175C85.4336 17.4527 86.2592 18.4063 86.2272 20.6079C86.2272 23.1039 84.416 24.6143 81.376 24.6143C80.7319 24.6064 80.0897 24.5443 79.456 24.4287C78.2977 24.2401 77.1832 23.8433 76.1664 23.2575L77.12 21.3375L77.8304 21.7087C78.9121 22.3055 80.1218 22.6326 81.3568 22.6623C82.7712 22.6623 83.8144 21.8879 83.8144 20.8127C83.8126 20.4755 83.7173 20.1454 83.5392 19.8591C82.9888 19.0527 82.3424 18.6559 79.8528 17.6383C77.152 16.4991 76.2304 15.5391 76.2304 13.8431C76.2304 11.4111 78.2592 9.90066 81.5104 9.90066C82.1093 9.89166 82.7075 9.94312 83.296 10.0543C84.2574 10.22 85.1758 10.5769 85.9968 11.1039L84.8576 12.9855C84.253 12.5589 83.5767 12.2446 82.8608 12.0575C82.3433 11.9036 81.8071 11.8218 81.2672 11.8143C79.7184 11.8143 78.7072 12.5183 78.7072 13.5679C78.7009 13.8895 78.8229 14.2004 79.0464 14.4319ZM91.0528 24.1791H88.7488V10.2399H91.0528V24.1791ZM99.68 22.2591C99.1936 22.2591 98.944 22.0415 98.8864 21.6191C98.8864 21.4721 98.8531 21.0056 98.8257 20.622L98.8257 20.6218C98.8066 20.354 98.7904 20.1266 98.7904 20.0767V12.1599H102.477V10.2399H98.7904V6.16946H96.4864V10.2399H94.1568V12.1599H96.4864V21.4911C96.4864 23.3407 97.5616 24.6015 99.1616 24.6015C100.262 24.6015 101.03 24.1983 102.662 22.8479L101.709 21.3055C100.723 22.0415 100.262 22.2911 99.68 22.2911V22.2591ZM110.586 18.7775L113.44 10.2399H115.84L110.323 24.9727C109.834 26.4038 109.19 27.7773 108.403 29.0687C107.774 30.0909 107.077 31.0701 106.317 31.9999L104.506 30.5791C105.551 29.5075 106.441 28.2947 107.149 26.9759C107.919 25.5995 108.562 24.1556 109.069 22.6623L103.91 10.2399H106.47L109.818 18.7775L110.278 20.1343L110.586 18.7775Z" fill="#3A53A2"/>
</svg>
