<svg width="170" height="28" viewBox="0 0 170 28" fill="none" xmlns="http://www.w3.org/2000/svg">
<ellipse cx="12.4074" cy="10.7631" rx="4.4184" ry="4.4352" fill="#FF616E"/>
<path d="M17.7668 17.3152C15.8951 18.8549 13.4514 19.5149 11.059 19.1269C8.66664 18.7388 6.55682 17.3403 5.26765 15.288C4.44853 13.9237 3.94707 12.3925 3.80045 10.808C3.69803 9.65697 3.83727 8.49725 4.20925 7.40319C4.64334 6.28458 5.2072 5.22077 5.88925 4.23359C6.23645 3.67359 6.32045 3.24799 5.39085 3.63999C4.09997 4.38965 3.0447 5.48566 2.34445 6.80399C1.74544 7.92495 1.32415 9.13213 1.09565 10.3824C1.03405 10.7296 0.278048 15.9824 4.28765 19.4656C5.01753 20.0636 5.83059 20.5522 6.70125 20.916C8.28359 21.5593 9.99284 21.8295 11.6964 21.7056C12.8659 21.575 14.0033 21.2395 15.0564 20.7144C15.3015 20.5843 15.539 20.4404 15.7676 20.2832C17.2316 19.2561 18.344 17.8034 18.954 16.1224C18.5986 16.5581 18.2009 16.9576 17.7668 17.3152Z" fill="#8FCBE0"/>
<path d="M26.4858 6.25515C25.9216 4.38411 24.824 2.71822 23.3274 1.46155C21.8069 0.210556 19.7907 -0.2614 17.873 0.184753C17.061 0.403153 16.193 1.04155 16.2994 1.86475C16.4241 2.32825 16.6904 2.7413 17.061 3.04635C20.4334 6.55752 21.519 11.6793 19.861 16.2568C19.203 18.1904 17.9406 19.8612 16.2602 21.0224C14.666 22.0952 12.7832 22.6577 10.8618 22.6352C9.31185 22.6289 7.7776 22.3247 6.34256 21.7392C5.44374 21.3646 4.60129 20.8671 3.83936 20.2608C5.25984 21.8988 7.07583 23.1461 9.11456 23.884C12.2753 24.9781 15.727 24.8786 18.8194 23.604C21.5204 22.4325 23.7753 20.4268 25.2538 17.8808C25.5307 17.4145 25.7794 16.932 25.9986 16.436C27.4015 13.2164 27.5749 9.594 26.4858 6.25515Z" fill="#3A53A2"/>
<path fill-rule="evenodd" clip-rule="evenodd" d="M79.1149 3.35995C78.5798 3.35768 78.0962 3.67824 77.8899 4.1719C77.6836 4.66557 77.7952 5.23493 78.1728 5.61407C78.5503 5.9932 79.1192 6.1073 79.6137 5.90308C80.1082 5.69885 80.4309 5.2166 80.4309 4.68155C80.4309 3.95383 79.8426 3.36304 79.1149 3.35995ZM40.2732 17.248L45.3132 3.35995H47.514L40.6372 21.616H39.2932L32.3044 3.35995H34.6676L39.926 17.248C40.0247 17.5265 40.0887 17.8162 40.1164 18.1104C40.1143 17.8156 40.1675 17.5231 40.2732 17.248ZM105.72 3.35995H119.748V5.23595H113.835V21.1736H111.634V5.23595H105.72V3.35995ZM121.496 19.7288C122.784 19.7288 124.721 18.3568 126.116 16.4136L126.127 8.95995H128.171V21.1736H126.127V18.6424C124.705 20.608 123.12 21.5544 121.289 21.5544C119.161 21.5544 118.041 20.3672 118.041 18.1272V8.95995H120.045V17.6008C120.045 19.1072 120.471 19.7288 121.496 19.7288ZM135.076 19.488C134.65 19.488 134.432 19.2976 134.381 18.928C134.353 18.7096 134.297 17.6848 134.297 17.5784V10.64H137.523V8.95995H134.297V5.39835H132.281V8.95995L130.243 9.46955V10.64H132.281V18.8048C132.281 20.4232 133.222 21.5264 134.622 21.5264C135.585 21.5264 136.257 21.1736 137.685 19.992L136.851 18.6424C136.011 19.2864 135.608 19.5048 135.098 19.5048L135.076 19.488ZM138.497 15.064C138.497 11.5304 141.208 8.61835 144.517 8.61835L144.54 8.63515C147.816 8.63515 150.521 11.5752 150.521 15.0808C150.521 18.5864 147.827 21.5096 144.517 21.5096C141.208 21.5096 138.497 18.5976 138.497 15.064ZM144.517 19.7008C142.367 19.7008 140.698 17.6512 140.698 15.064C140.698 12.4768 142.378 10.4272 144.517 10.4272C146.656 10.4272 148.303 12.4768 148.303 15.064C148.303 17.6512 146.662 19.7176 144.54 19.7176L144.517 19.7008ZM154.805 8.95995V11.2C156.305 9.22875 157.061 8.63515 157.974 8.65755C158.579 8.73113 159.135 9.02885 159.531 9.49195L158.54 11.172C158.137 10.8192 157.918 10.6848 157.677 10.6848C156.927 10.6848 155.958 11.788 154.805 13.8936V21.1736H152.789V8.95995H154.805ZM166.256 14.2184C164.05 13.3 163.731 13.0984 163.244 12.628C163.052 12.4236 162.947 12.1523 162.952 11.872C162.952 10.9536 163.837 10.3376 165.192 10.3376C165.665 10.3445 166.134 10.4161 166.587 10.5504C167.213 10.7141 167.805 10.9891 168.334 11.3624L169.331 9.71595C168.61 9.25556 167.805 8.94336 166.962 8.79755C166.449 8.70008 165.927 8.65505 165.405 8.66315C162.555 8.66315 160.785 9.98475 160.785 12.1128C160.785 13.5968 161.592 14.4368 163.955 15.4336C166.133 16.324 166.693 16.6712 167.18 17.3768C167.336 17.6273 167.42 17.9161 167.421 18.2112C167.421 19.152 166.508 19.8296 165.271 19.8296C164.189 19.8028 163.128 19.5166 162.18 18.9952L161.564 18.6704L160.729 20.3504C161.619 20.863 162.594 21.2102 163.608 21.3752C164.162 21.4763 164.724 21.5307 165.288 21.5376C167.948 21.5376 169.532 20.216 169.532 18.032C169.56 16.1056 168.832 15.2712 166.256 14.1904V14.2184ZM56.0316 19.18V11.6816C56.0316 9.79435 54.5028 8.63515 52.0556 8.63515C49.4516 8.63515 47.6764 9.75515 47.6764 11.3568C47.663 11.6252 47.7377 11.8907 47.8892 12.1128L49.9332 11.6816C49.8688 11.5367 49.8327 11.3808 49.8268 11.2224C49.8268 10.5224 50.3868 10.1696 51.6804 10.1696C53.2372 10.1696 53.9932 10.6848 53.9932 11.6816V13.8936L49.7708 14.8904C48.1304 15.1626 46.9606 16.6297 47.0604 18.2896C47.0081 19.1625 47.3349 20.0156 47.9571 20.6302C48.5792 21.2448 49.4362 21.5612 50.3084 21.4984C51.2137 21.4829 52.1009 21.2423 52.89 20.7984C53.3662 20.5325 53.8066 20.2069 54.2004 19.8296C54.3068 20.9888 54.9004 21.42 56.5636 21.5096L57.0508 19.8296C56.4068 19.7176 56.0876 19.5048 56.0316 19.18ZM50.7117 19.6952C51.6245 19.6952 52.2461 19.3984 53.9933 18.1272V15.6184L49.4237 16.8C49.1844 17.1904 49.062 17.6413 49.0709 18.0992C49.0468 18.5374 49.2135 18.9646 49.5281 19.2706C49.8427 19.5766 50.2744 19.7314 50.7117 19.6952ZM61.3797 11.2V8.95995H59.3637V21.1736H61.3797V13.8936C62.5389 11.788 63.5021 10.6848 64.2581 10.6848C64.4989 10.6848 64.7117 10.8192 65.1149 11.172L66.1117 9.49195C65.7144 9.02719 65.1565 8.72925 64.5493 8.65755C63.6365 8.63515 62.8861 9.22875 61.3797 11.2ZM69.6061 12.628C70.0877 13.0984 70.4125 13.3 72.6133 14.2184V14.1904C75.1949 15.2712 75.9173 16.1056 75.8893 18.032C75.8893 20.216 74.3045 21.5376 71.6445 21.5376C71.0809 21.5307 70.519 21.4763 69.9645 21.3752C68.951 21.2102 67.9758 20.863 67.0861 20.3504L67.9205 18.6704L68.5421 18.9952C69.4886 19.5174 70.547 19.8036 71.6277 19.8296C72.8653 19.8296 73.7781 19.152 73.7781 18.2112C73.7765 17.9161 73.6932 17.6273 73.5373 17.3768C73.0557 16.6712 72.4901 16.324 70.3117 15.4336C67.9485 14.4368 67.1421 13.5968 67.1421 12.1128C67.1421 9.98475 68.9173 8.66315 71.7621 8.66315C72.2861 8.65528 72.8095 8.70031 73.3245 8.79755C74.1657 8.94261 74.9693 9.2549 75.6877 9.71595L74.6909 11.3624C74.1619 10.9891 73.5701 10.7141 72.9437 10.5504C72.4909 10.4158 72.0217 10.3441 71.5493 10.3376C70.1941 10.3376 69.3093 10.9536 69.3093 11.872C69.3038 12.1534 69.4106 12.4254 69.6061 12.628ZM80.1117 21.1568H78.0957V8.95995H80.1117V21.1568ZM87.6604 19.4768C87.2348 19.4768 87.0164 19.2864 86.966 18.9168C86.966 18.7881 86.9369 18.3798 86.9129 18.0441C86.8962 17.8098 86.882 17.6109 86.882 17.5672V10.64H90.1076V8.95995H86.882V5.39835H84.866V8.95995H82.8276V10.64H84.866V18.8048C84.866 20.4232 85.8068 21.5264 87.2068 21.5264C88.17 21.5264 88.842 21.1736 90.27 19.992L89.4356 18.6424C88.5732 19.2864 88.17 19.5048 87.6604 19.5048V19.4768ZM97.2028 16.4304L99.7004 8.95995H101.8L96.9732 21.8512C96.5454 23.1034 95.982 24.3052 95.2932 25.4352C94.7422 26.3296 94.1324 27.1865 93.4676 28L91.8828 26.7568C92.7974 25.8192 93.576 24.7579 94.1956 23.604C94.8695 22.3997 95.4318 21.1363 95.8756 19.8296L91.362 8.95995H93.602L96.5308 16.4304L96.934 17.6176L97.2028 16.4304Z" fill="#3A53A2"/>
</svg>
